#!OML:ASF E:\emotionWalksFemale\Project 1\Capture day 1\Session 1\Female1.ASF
:FULLY-SPECIFIED
:DEGREES
456
root 8.83809 14.7262 31.8079 -177.538 0.477589 -173.595
lowerback 9.12533 2.40033 -4.39474
upperback -2.16619 2.75274 -5.96383
thorax -7.33251 1.59036 -4.30081
lowerneck -7.39191 -4.28098 -10.0667
upperneck 2.67228 -5.87076 15.1528
head 2.77705 -2.72856 5.99305
rclavicle 4.83047e-014 6.99722e-014
rhumerus -29.4921 46.4717 -119.075
rradius 40.4123
rwrist 21.7838
rhand -1.80622 -65.2199
rfingers 7.12502
rthumb 23.8592 -266.242
lclavicle 4.83047e-014 6.99722e-014
lhumerus -57.5305 -63.8519 145.395
lradius 104.183
lwrist 30.153
lhand 19.1152 -28.3444
lfingers 7.12502
lthumb 43.71 -4.3542
rfemur 5.45849 8.88593 37.1667
rtibia 24.5896
rfoot -19.37 -16.683
rtoes 13.5459
lfemur -42.4608 -19.8611 -1.34278
ltibia 32.3355
lfoot -18.3493 17.9004
ltoes -10.5547
457
root 8.81271 14.7286 31.6993 -177.496 0.798483 -173.563
lowerback 9.08748 2.19767 -4.66671
upperback -2.1677 2.45189 -5.90987
thorax -7.33755 1.45542 -4.04191
lowerneck -7.94154 -4.03689 -9.61065
upperneck 2.81991 -5.56874 15.0239
head 2.85614 -2.55921 5.88566
rclavicle 3.65764e-014 -6.36111e-015
rhumerus -29.6239 47.1979 -119.572
rradius 40.3128
rwrist 21.5387
rhand -1.56962 -64.9331
rfingers 7.12502
rthumb 24.0861 -266.559
lclavicle 3.65764e-014 -6.36111e-015
lhumerus -56.0656 -63.5282 143.63
lradius 104.151
lwrist 30.0895
lhand 19.5689 -28.5769
lfingers 7.12502
lthumb 44.1333 -4.74392
rfemur 5.67433 8.79259 37.0596
rtibia 25.0354
rfoot -18.8726 -16.3102
rtoes 14.4623
lfemur -42.0474 -19.8117 -1.38515
ltibia 32.2294
lfoot -18.4976 17.7948
ltoes -9.36389
458
root 8.78917 14.7357 31.5858 -177.432 1.04643 -173.602
lowerback 8.91442 2.64628 -4.36994
upperback -2.41762 3.07423 -5.85279
thorax -7.47428 1.74138 -4.24566
lowerneck -6.51532 -4.30604 -11.0063
upperneck 2.18384 -5.86582 15.7136
head 2.53441 -2.76435 6.34831
rclavicle -1.27222e-014 1.08139e-013
rhumerus -29.761 45.5565 -118.627
rradius 40.2337
rwrist 21.9908
rhand -1.45306 -64.3122
rfingers 7.12502
rthumb 24.1979 -267.194
lclavicle -1.27222e-014 1.08139e-013
lhumerus -58.4261 -63.6059 146.722
lradius 104.08
lwrist 29.8993
lhand 19.9584 -28.5383
lfingers 7.12502
lthumb 44.4963 -4.84301
rfemur 5.78637 8.64629 36.8644
rtibia 25.5512
rfoot -18.4889 -15.9251
rtoes 15.4287
lfemur -41.621 -19.7688 -1.57464
ltibia 32.1819
lfoot -18.5046 17.7069
ltoes -8.33779
459
root 8.76259 14.7484 31.4695 -177.335 1.29862 -173.625
lowerback 8.77567 2.39491 -4.6978
upperback -2.3423 2.72204 -5.85722
thorax -7.3413 1.58724 -3.99923
lowerneck -7.69895 -4.01024 -10.2146
upperneck 2.62503 -5.48033 15.3199
head 2.77367 -2.5249 6.09251
rclavicle -3.77691e-014 6.67916e-014
rhumerus -29.6445 46.1447 -119.009
rradius 40.1496
rwrist 22.0698
rhand -1.50653 -63.8336
rfingers 7.12502
rthumb 24.1466 -267.666
lclavicle -3.77691e-014 6.67916e-014
lhumerus -56.898 -63.5822 144.836
lradius 104.14
lwrist 29.719
lhand 19.8913 -28.2059
lfingers 7.12502
lthumb 44.4338 -4.48677
rfemur 5.83274 8.43448 36.648
rtibia 26.0935
rfoot -18.0317 -15.541
rtoes 15.8684
lfemur -41.1746 -19.5986 -1.85912
ltibia 32.1766
lfoot -18.3519 17.6335
ltoes -7.35151
460
root 8.73245 14.7577 31.3503 -177.293 1.56933 -173.712
lowerback 8.61652 2.43544 -4.66493
upperback -2.42453 2.79717 -5.99715
thorax -7.32731 1.62684 -4.17422
lowerneck -7.87439 -3.95599 -10.0873
upperneck 2.80143 -5.4356 15.3632
head 2.84689 -2.49248 6.08478
rclavicle 3.65764e-014 -1.49486e-013
rhumerus -29.7759 46.0944 -119.247
rradius 40.014
rwrist 21.7197
rhand -1.52077 -63.3603
rfingers 7.12502
rthumb 24.133 -268.138
lclavicle 3.65764e-014 -1.49486e-013
lhumerus -57.2085 -63.713 145.043
lradius 104.114
lwrist 29.8025
lhand 19.5175 -28.0157
lfingers 7.12502
lthumb 44.0853 -4.16467
rfemur 6.01066 8.16586 36.3372
rtibia 26.4945
rfoot -17.4746 -14.9434
rtoes 16.5179
lfemur -40.6798 -19.3792 -2.32655
ltibia 32.3161
lfoot -18.0232 17.6857
ltoes -7.43597
461
root 8.7026 14.7662 31.2291 -177.267 1.93391 -173.895
lowerback 8.49382 2.57704 -4.73251
upperback -2.5439 2.9928 -6.12362
thorax -7.37551 1.73044 -4.30174
lowerneck -7.87682 -4.02363 -10.2468
upperneck 3.05427 -5.54846 15.5144
head 2.94574 -2.54049 6.15259
rclavicle -1.2921e-014 -5.725e-014
rhumerus -29.9188 45.8248 -119.28
rradius 39.8716
rwrist 21.4889
rhand -1.20568 -63.0407
rfingers 7.12502
rthumb 24.435 -268.498
lclavicle -1.2921e-014 -5.725e-014
lhumerus -57.8518 -63.8038 145.7
lradius 104.036
lwrist 29.9082
lhand 19.1848 -28.3708
lfingers 7.12502
lthumb 43.7749 -4.4045
rfemur 6.45209 8.0137 35.9137
rtibia 26.4151
rfoot -16.8348 -13.8174
rtoes 17.945
lfemur -40.2885 -19.1393 -2.93751
ltibia 32.8564
lfoot -17.6158 18.11
ltoes -8.85742
462
root 8.66739 14.7712 31.1042 -177.501 2.2194 -173.318
lowerback 8.57517 2.46829 -4.26792
upperback -2.45539 2.86788 -5.90475
thorax -7.31895 1.63555 -4.30507
lowerneck -8.46473 -3.9187 -9.93451
upperneck 3.47051 -5.42232 15.2664
head 3.133 -2.44848 6.02072
rclavicle -1.2921e-014 1.59028e-014
rhumerus -30.1027 46.3076 -119.595
rradius 39.7294
rwrist 21.388
rhand -0.83793 -62.6816
rfingers 7.12502
rthumb 24.7875 -268.905
lclavicle -1.2921e-014 1.59028e-014
lhumerus -57.0255 -63.6225 144.672
lradius 104.034
lwrist 29.8511
lhand 18.8036 -28.9058
lfingers 7.12502
lthumb 43.419 -4.80961
rfemur 7.22565 7.80361 36.3469
rtibia 26.2754
rfoot -15.5917 -13.8995
rtoes 18.3722
lfemur -39.6239 -18.8272 -2.88958
ltibia 33.4288
lfoot -16.9512 18.6312
ltoes -11.8542
463
root 8.61859 14.7611 30.9792 -178.293 2.26699 -171.49
lowerback 9.27832 2.53821 -1.86745
upperback -2.25445 3.12332 -5.41646
thorax -7.39482 1.61581 -5.19827
lowerneck -8.33558 -4.06201 -10.1977
upperneck 3.4622 -5.57741 15.2112
head 3.13431 -2.52982 6.03905
rclavicle -2.50469e-014 6.04305e-014
rhumerus -30.2635 46.1573 -119.388
rradius 39.6247
rwrist 21.3424
rhand -0.374572 -62.3439
rfingers 7.12502
rthumb 25.2316 -269.304
lclavicle -2.50469e-014 6.04305e-014
lhumerus -57.5693 -63.7985 145.401
lradius 104.074
lwrist 29.9036
lhand 18.1935 -28.9683
lfingers 7.12502
lthumb 42.8487 -4.66908
rfemur 8.64358 7.23202 38.1849
rtibia 26.0219
rfoot -14.2438 -13.7794
rtoes 17.6843
lfemur -38.5488 -18.5084 -1.74518
ltibia 34.1509
lfoot -16.2598 18.7047
ltoes -14.765
464
root 8.57991 14.7881 30.8501 -178.172 2.36121 -171.958
lowerback 8.99065 2.53088 -2.08951
upperback -2.4071 3.10818 -5.59173
thorax -7.39691 1.62408 -5.24957
lowerneck -7.97487 -4.06458 -10.2934
upperneck 3.51563 -5.58249 15.1047
head 3.08889 -2.54429 6.02627
rclavicle -1.2921e-014 -4.77083e-014
rhumerus -30.768 45.9501 -119.668
rradius 39.5192
rwrist 21.432
rhand 0.128262 -61.9006
rfingers 7.12502
rthumb 25.7132 -269.816
lclavicle -1.2921e-014 -4.77083e-014
lhumerus -57.9246 -63.7589 145.779
lradius 104.05
lwrist 29.9088
lhand 18.0065 -28.739
lfingers 7.12502
lthumb 42.6737 -4.3788
rfemur 9.00441 6.95881 37.4234
rtibia 25.8667
rfoot -13.0114 -13.2367
rtoes 15.8485
lfemur -38.3953 -18.7083 -2.55257
ltibia 34.7098
lfoot -16.8738 18.8221
ltoes -9.11435
465
root 8.54292 14.8099 30.7162 -178.233 2.5755 -172.104
lowerback 8.59684 2.47729 -2.35637
upperback -2.2285 3.04383 -5.61241
thorax -6.99599 1.61418 -5.07166
lowerneck -8.34253 -4.0015 -9.89173
upperneck 3.6046 -5.49691 14.7786
head 3.14361 -2.48995 5.85468
rclavicle -2.52457e-014 -5.08889e-014
rhumerus -30.6428 46.4603 -119.796
rradius 39.2736
rwrist 20.9563
rhand 0.157148 -61.1536
rfingers 7.12502
rthumb 25.7409 -449.433
lclavicle -2.52457e-014 -5.08889e-014
lhumerus -56.8093 -63.9508 144.675
lradius 103.936
lwrist 30.0147
lhand 18.6375 -28.5625
lfingers 7.12502
lthumb 43.2638 -4.41046
rfemur 9.39922 6.75459 36.9991
rtibia 25.9865
rfoot -11.7567 -12.3524
rtoes 14.1542
lfemur -37.9919 -18.7853 -3.06592
ltibia 35.123
lfoot -18.9029 19.0072
ltoes -0.484009
466
root 8.50527 14.8338 30.5774 -178.436 2.82461 -172.231
lowerback 8.41815 2.59701 -2.36651
upperback -2.11625 3.22562 -5.68869
thorax -6.75779 1.71017 -5.15307
lowerneck -8.2436 -4.09209 -9.99646
upperneck 3.52062 -5.61869 14.891
head 3.12464 -2.55521 5.90109
rclavicle 2.46493e-014 -1.62208e-013
rhumerus -30.5227 46.3971 -119.74
rradius 39.044
rwrist 20.5593
rhand 0.37756 -60.6253
rfingers 7.12502
rthumb 25.952 -448.874
lclavicle 2.46493e-014 -1.62208e-013
lhumerus -56.8295 -64.2365 144.75
lradius 103.889
lwrist 30.3216
lhand 19.3409 -28.4807
lfingers 7.12502
lthumb 43.9206 -4.5683
rfemur 9.5839 6.62169 36.6178
rtibia 26.8418
rfoot -10.6561 -11.7713
rtoes 13.2513
lfemur -37.2154 -18.7493 -3.65447
ltibia 35.1531
lfoot -20.1754 18.3992
ltoes 6.94237
467
root 8.4739 14.8663 30.4468 -178.517 2.8747 -172.672
lowerback 8.39448 2.71045 -2.59316
upperback -2.20705 3.36824 -5.88275
thorax -6.83349 1.79644 -5.25915
lowerneck -7.96002 -4.23893 -10.322
upperneck 3.59574 -5.82674 15.1108
head 3.14303 -2.66467 6.01622
rclavicle 3.02153e-014 -5.40694e-014
rhumerus -30.8111 45.9031 -119.833
rradius 38.7843
rwrist 21.0179
rhand 0.679965 -60.2943
rfingers 7.12502
rthumb 26.2415 -448.5
lclavicle 3.02153e-014 -5.40694e-014
lhumerus -57.7547 -64.4167 145.655
lradius 103.963
lwrist 30.6246
lhand 19.3511 -27.846
lfingers 7.12502
lthumb 43.9301 -3.9371
rfemur 9.50847 6.49387 35.9795
rtibia 27.9203
rfoot -9.38626 -11.7338
rtoes 12.9777
lfemur -36.5782 -18.5274 -4.63957
ltibia 35.1786
lfoot -18.9761 18.4998
ltoes 4.36027
468
root 8.4402 14.8909 30.3356 -178.104 2.44699 -172.712
lowerback 8.40772 2.48144 -2.33131
upperback -2.44744 3.08339 -6.08551
thorax -7.09359 1.64451 -5.60441
lowerneck -8.25932 -4.25425 -10.0786
upperneck 3.83147 -5.88071 15.0636
head 3.26103 -2.67614 5.95119
rclavicle -5.70512e-014 3.18055e-015
rhumerus -31.205 45.9585 -120.427
rradius 38.4331
rwrist 21.5675
rhand 0.668369 -60.0376
rfingers 7.12502
rthumb 26.2304 -448.245
lclavicle -5.70512e-014 3.18055e-015
lhumerus -58.0173 -64.5171 145.542
lradius 104.087
lwrist 30.7795
lhand 18.7459 -26.6957
lfingers 7.12502
lthumb 43.3651 -2.58007
rfemur 8.65639 6.11454 35.7451
rtibia 29.1917
rfoot -7.82231 -11.4929
rtoes 13.5824
lfemur -36.7732 -18.1554 -5.08521
ltibia 35.2173
lfoot -14.4473 18.6949
ltoes -14.314
469
root 8.40522 14.9144 30.2113 -178.016 2.13579 -172.815
lowerback 8.39039 2.32517 -2.56087
upperback -2.46256 2.84864 -6.00859
thorax -7.13205 1.53911 -5.35854
lowerneck -8.54567 -4.2337 -9.97741
upperneck 3.86949 -5.82478 14.8622
head 3.30296 -2.63905 5.86958
rclavicle -3.70733e-014 -8.5875e-014
rhumerus -31.5691 46.3943 -120.697
rradius 38.1761
rwrist 21.4753
rhand 0.961558 -59.8728
rfingers 7.12502
rthumb 26.5111 -448.038
lclavicle -3.70733e-014 -8.5875e-014
lhumerus -57.3183 -64.5536 144.967
lradius 104.013
lwrist 30.7965
lhand 18.328 -26.1122
lfingers 7.12502
lthumb 42.9745 -1.85723
rfemur 8.07007 5.70972 35.4329
rtibia 30.6219
rfoot -6.48896 -10.6546
rtoes 14.8486
lfemur -36.5256 -18.0102 -5.66783
ltibia 35.2486
lfoot -13.6055 18.1892
ltoes -17.6618
470
root 8.36801 14.939 30.0788 -178.183 2.04049 -172.888
lowerback 8.39719 2.46928 -2.41853
upperback -2.49571 3.05098 -5.96379
thorax -7.15227 1.62952 -5.42128
lowerneck -7.98027 -4.38346 -10.7212
upperneck 3.60998 -5.97447 15.1781
head 3.18425 -2.73601 6.09498
rclavicle 1.47101e-014 -1.59028e-014
rhumerus -31.8031 45.7684 -120.414
rradius 37.8713
rwrist 21.2714
rhand 1.34331 -59.3374
rfingers 7.12502
rthumb 26.8764 -447.447
lclavicle 1.47101e-014 -1.59028e-014
lhumerus -57.9369 -64.671 146.005
lradius 103.915
lwrist 30.7993
lhand 18.3618 -25.9047
lfingers 7.12502
lthumb 43.0061 -1.66093
rfemur 7.70215 5.33086 35.1127
rtibia 32.1375
rfoot -4.95256 -10.5729
rtoes 14.9131
lfemur -35.8832 -17.9104 -6.23955
ltibia 35.3307
lfoot -13.5042 17.5279
ltoes -17.7292
